HIERARCHY
ROOT Hips
{
  OFFSET 150.432 88.1888 27.0678
  CHANNELS 6 Xposition Yposition Zposition Zrotation Xrotation Yrotation
  JOINT RightUpLeg
  {
    OFFSET -9.25679 -1.50405 0.000749919
    CHANNELS 3 Zrotation Xrotation Yrotation
    JOINT RightLeg
    {
      OFFSET 0.0460649 -41.9017 0.109432
      CHANNELS 3 Zrotation Xrotation Yrotation
      JOINT RightFoot
      {
        OFFSET 1.7988 -41.6468 0.413135
        CHANNELS 3 Zrotation Xrotation Yrotation
        End Site
        {
          OFFSET 0 -7.69 17.5
        }
      }
    }
  }
  JOINT LeftUpLeg
  {
    OFFSET 9.37007 -1.70178 -0.0772456
    CHANNELS 3 Zrotation Xrotation Yrotation
    JOINT LeftLeg
    {
      OFFSET 0.225295 -41.8622 -0.102498
      CHANNELS 3 Zrotation Xrotation Yrotation
      JOINT LeftFoot
      {
        OFFSET -2.07126 -41.2817 -1.22305
        CHANNELS 3 Zrotation Xrotation Yrotation
        End Site
        {
          OFFSET 0 -7.69 17.5
        }
      }
    }
  }
  JOINT Spine
  {
    OFFSET 0.0614897 14.2979 0.0172263
    CHANNELS 3 Zrotation Xrotation Yrotation
    JOINT Spine1
    {
      OFFSET 0.0253415 9.71429 0.00919728
      CHANNELS 3 Zrotation Xrotation Yrotation
      JOINT Spine2
      {
        OFFSET -0.0163533 10.1275 0.00641818
        CHANNELS 3 Zrotation Xrotation Yrotation
        JOINT Spine3
        {
          OFFSET 0.00964153 9.71178 0.018187
          CHANNELS 3 Zrotation Xrotation Yrotation
          JOINT Neck
          {
            OFFSET -0.0402277 10.3749 0.0917408
            CHANNELS 3 Zrotation Xrotation Yrotation
            JOINT Head
            {
              OFFSET 0.0121048 9.49481 0.108971
              CHANNELS 3 Zrotation Xrotation Yrotation
              End Site
              {
                OFFSET 0 15.95 0
              }
            }
          }
          JOINT RightShoulder
          {
            OFFSET -3.18208 6.946 0.015457
            CHANNELS 3 Zrotation Xrotation Yrotation
            JOINT RightArm
            {
              OFFSET -12.7708 0.0386499 -0.00729584
              CHANNELS 3 Zrotation Xrotation Yrotation
              JOINT RightForeArm
              {
                OFFSET -26.422 0.00272702 0.0331834
                CHANNELS 3 Zrotation Xrotation Yrotation
                JOINT RightHand
                {
                  OFFSET -25.9963 -0.0318335 0.00677283
                  CHANNELS 3 Zrotation Xrotation Yrotation
                  JOINT RightHandThumb1
                  {
                    OFFSET -2.48905 0.190105 3.12053
                    CHANNELS 3 Zrotation Xrotation Yrotation
                    JOINT RightHandThumb2
                    {
                      OFFSET -3.68274 0 0
                      CHANNELS 3 Zrotation Xrotation Yrotation
                      JOINT RightHandThumb3
                      {
                        OFFSET -2.55832 0 0
                        CHANNELS 3 Zrotation Xrotation Yrotation
                        End Site
                        {
                          OFFSET -2.194 0 0
                        }
                      }
                    }
                  }
                  JOINT RightInHandIndex
                  {
                    OFFSET -3.22368 0.508421 1.97842
                    CHANNELS 3 Zrotation Xrotation Yrotation
                    JOINT RightHandIndex1
                    {
                      OFFSET -5.21684 -0.091368 0.999158
                      CHANNELS 3 Zrotation Xrotation Yrotation
                      JOINT RightHandIndex2
                      {
                        OFFSET -3.61937 0 0
                        CHANNELS 3 Zrotation Xrotation Yrotation
                        JOINT RightHandIndex3
                        {
                          OFFSET -2.0521 0 0
                          CHANNELS 3 Zrotation Xrotation Yrotation
                          End Site
                          {
                            OFFSET -1.805 0 0
                          }
                        }
                      }
                    }
                  }
                  JOINT RightInHandMiddle
                  {
                    OFFSET -3.38211 0.517263 0.756737
                    CHANNELS 3 Zrotation Xrotation Yrotation
                    JOINT RightHandMiddle1
                    {
                      OFFSET -5.17411 -0.084 0.313895
                      CHANNELS 3 Zrotation Xrotation Yrotation
                      JOINT RightHandMiddle2
                      {
                        OFFSET -3.94947 0 0
                        CHANNELS 3 Zrotation Xrotation Yrotation
                        JOINT RightHandMiddle3
                        {
                          OFFSET -2.47579 0 0
                          CHANNELS 3 Zrotation Xrotation Yrotation
                          End Site
                          {
                            OFFSET -1.975 0 0
                          }
                        }
                      }
                    }
                  }
                  JOINT RightInHandRing
                  {
                    OFFSET -3.36516 0.537895 -0.128947
                    CHANNELS 3 Zrotation Xrotation Yrotation
                    JOINT RightHandRing1
                    {
                      OFFSET -4.63474 -0.022105 -0.478947
                      CHANNELS 3 Zrotation Xrotation Yrotation
                      JOINT RightHandRing2
                      {
                        OFFSET -3.44238 0 0
                        CHANNELS 3 Zrotation Xrotation Yrotation
                        JOINT RightHandRing3
                        {
                          OFFSET -2.3881 0 0
                          CHANNELS 3 Zrotation Xrotation Yrotation
                          End Site
                          {
                            OFFSET -1.857 0 0
                          }
                        }
                      }
                    }
                  }
                  JOINT RightInHandPinky
                  {
                    OFFSET -3.16105 0.469368 -1.20179
                    CHANNELS 3 Zrotation Xrotation Yrotation
                    JOINT RightHandPinky1
                    {
                      OFFSET -4.14105 -0.022105 -1.09053
                      CHANNELS 3 Zrotation Xrotation Yrotation
                      JOINT RightHandPinky2
                      {
                        OFFSET -2.75653 0 0
                        CHANNELS 3 Zrotation Xrotation Yrotation
                        JOINT RightHandPinky3
                        {
                          OFFSET -1.74189 0 0
                          CHANNELS 3 Zrotation Xrotation Yrotation
                          End Site
                          {
                            OFFSET -1.645 0 0
                          }
                        }
                      }
                    }
                  }
                }
              }
            }
          }
          JOINT LeftShoulder
          {
            OFFSET 3.18966 6.92856 0.062398
            CHANNELS 3 Zrotation Xrotation Yrotation
            JOINT LeftArm
            {
              OFFSET 12.7601 -0.0509086 0.00275124
              CHANNELS 3 Zrotation Xrotation Yrotation
              JOINT LeftForeArm
              {
                OFFSET 26.4828 -0.0571091 -0.0285564
                CHANNELS 3 Zrotation Xrotation Yrotation
                JOINT LeftHand
                {
                  OFFSET 25.9994 -0.0171136 -0.0547064
                  CHANNELS 3 Zrotation Xrotation Yrotation
                  JOINT LeftHandThumb1
                  {
                    OFFSET 2.48905 0.190105 3.12053
                    CHANNELS 3 Zrotation Xrotation Yrotation
                    JOINT LeftHandThumb2
                    {
                      OFFSET 3.68274 0 0
                      CHANNELS 3 Zrotation Xrotation Yrotation
                      JOINT LeftHandThumb3
                      {
                        OFFSET 2.55832 0 0
                        CHANNELS 3 Zrotation Xrotation Yrotation
                        End Site
                        {
                          OFFSET 2.194 0 0
                        }
                      }
                    }
                  }
                  JOINT LeftInHandIndex
                  {
                    OFFSET 3.22368 0.508421 1.97842
                    CHANNELS 3 Zrotation Xrotation Yrotation
                    JOINT LeftHandIndex1
                    {
                      OFFSET 5.21684 -0.091368 0.999158
                      CHANNELS 3 Zrotation Xrotation Yrotation
                      JOINT LeftHandIndex2
                      {
                        OFFSET 3.61937 0 0
                        CHANNELS 3 Zrotation Xrotation Yrotation
                        JOINT LeftHandIndex3
                        {
                          OFFSET 2.0521 0 0
                          CHANNELS 3 Zrotation Xrotation Yrotation
                          End Site
                          {
                            OFFSET 1.805 0 0
                          }
                        }
                      }
                    }
                  }
                  JOINT LeftInHandMiddle
                  {
                    OFFSET 3.38211 0.517263 0.756737
                    CHANNELS 3 Zrotation Xrotation Yrotation
                    JOINT LeftHandMiddle1
                    {
                      OFFSET 5.17411 -0.084 0.313895
                      CHANNELS 3 Zrotation Xrotation Yrotation
                      JOINT LeftHandMiddle2
                      {
                        OFFSET 3.94947 0 0
                        CHANNELS 3 Zrotation Xrotation Yrotation
                        JOINT LeftHandMiddle3
                        {
                          OFFSET 2.47579 0 0
                          CHANNELS 3 Zrotation Xrotation Yrotation
                          End Site
                          {
                            OFFSET 1.975 0 0
                          }
                        }
                      }
                    }
                  }
                  JOINT LeftInHandRing
                  {
                    OFFSET 3.36516 0.537895 -0.128947
                    CHANNELS 3 Zrotation Xrotation Yrotation
                    JOINT LeftHandRing1
                    {
                      OFFSET 4.63474 -0.022105 -0.478947
                      CHANNELS 3 Zrotation Xrotation Yrotation
                      JOINT LeftHandRing2
                      {
                        OFFSET 3.44238 0 0
                        CHANNELS 3 Zrotation Xrotation Yrotation
                        JOINT LeftHandRing3
                        {
                          OFFSET 2.3881 0 0
                          CHANNELS 3 Zrotation Xrotation Yrotation
                          End Site
                          {
                            OFFSET 1.857 0 0
                          }
                        }
                      }
                    }
                  }
                  JOINT LeftInHandPinky
                  {
                    OFFSET 3.16105 0.469368 -1.20179
                    CHANNELS 3 Zrotation Xrotation Yrotation
                    JOINT LeftHandPinky1
                    {
                      OFFSET 4.14105 -0.022105 -1.09053
                      CHANNELS 3 Zrotation Xrotation Yrotation
                      JOINT LeftHandPinky2
                      {
                        OFFSET 2.75653 0 0
                        CHANNELS 3 Zrotation Xrotation Yrotation
                        JOINT LeftHandPinky3
                        {
                          OFFSET 1.74189 0 0
                          CHANNELS 3 Zrotation Xrotation Yrotation
                          End Site
                          {
                            OFFSET 1.645 0 0
                          }
                        }
                      }
                    }
                  }
                }
              }
            }
          }
        }
      }
    }
  }
}
MOTION
Frames: 3
Frame Time: 0.00833333
4.500789226353533650e+02 -1.265245778298365598e-02 1.864977489682714817e-02 1.141922868217435383e-01 1.378979152182615575e-01 2.593533171171402141e-01 -4.826986057690305643e-01 -1.277547458104391076e-01 -4.210577061025324030e-01 3.294494240581512523e-01 1.609295737227118828e-01 -5.416267328083225197e-01 -5.239663763244544609e-02 -1.199022072181590674e-02 2.448987431697678407e-01 2.587691091217262165e-02 -9.641533714196565130e-02 -8.547479483921417015e-03 6.552778435118744582e-02 -7.809992937027114557e-02 -1.886652254763910297e-01 5.517549101513077175e-02 1.273801236926646041e-01 -2.071914873677703842e-02 1.703590356671697004e-02 1.381862050556615928e-01 -6.717881220131546871e-03 5.485034771055095383e-03 4.637358083108337331e-02 -4.658891779437785222e-03 5.898361343598185029e-03 9.061772438723995904e-02 -1.221350175684869296e-02 9.627636322056648890e-03 -1.905792526424375868e-02 -1.585119910820147887e-02 2.678772940182764378e-02 -1.433938666324919252e-02 -2.207127783470336779e-01 1.448545110537466929e-01 -3.246443250532022318e-01 -8.580009401383117962e-02 -1.423510913099706454e-01 -3.345897959140400890e-02 5.459504939002332025e-01 -9.454802936973882854e-01 9.805557297755247426e-01 2.463546899700406190e+00 7.321917326226403677e-01 -3.870746003230547405e-01 7.943544931035953383e+00 1.863764332244295663e-01 1.602883736631740552e-01 -2.328107354670809315e+00 0.000000000000000000e+00 0.000000000000000000e+00 0.000000000000000000e+00 5.351583502297828203e-15 5.247564207548133974e-15 0.000000000000000000e+00 -5.149020995190135215e-16 -8.513731374208670894e-16 0.000000000000000000e+00 1.922783867796913391e-16 3.373688742349966180e-15 5.009095876611679154e-15 0.000000000000000000e+00 0.000000000000000000e+00 0.000000000000000000e+00 0.000000000000000000e+00 1.262462866836582656e-15 1.555198472907584774e-14 0.000000000000000000e+00 6.548387322432406438e-15 5.830675246826968313e-15 1.922783867796913391e-16 3.373688742349966180e-15 5.009095876611679154e-15 0.000000000000000000e+00 6.830062326908606333e-15 8.097559361228507976e-15 0.000000000000000000e+00 1.139677140812690002e-14 2.836055305631223931e-14 0.000000000000000000e+00 7.352660325696510327e-15 1.141634302252812160e-14 1.922783867796913391e-16 3.373688742349966180e-15 5.009095876611679154e-15 0.000000000000000000e+00 0.000000000000000000e+00 0.000000000000000000e+00 0.000000000000000000e+00 -1.842328932127109292e-15 2.245314850268760126e-14 0.000000000000000000e+00 -7.750785867856176442e-16 2.202514493816052653e-15 1.922783867796913391e-16 3.373688742349966180e-15 5.009095876611679154e-15 0.000000000000000000e+00 0.000000000000000000e+00 0.000000000000000000e+00 0.000000000000000000e+00 3.881173012733064778e-15 2.291632203142535454e-14 0.000000000000000000e+00 3.983120264844119386e-15 7.063476000427042830e-15 -3.195515174475079684e-02 4.103211919282648279e-01 4.754526012264348456e-01 1.108148688060055509e+00 -8.845433071044825901e-01 -3.024790483121230777e-01 9.539682270778415685e+00 2.198059255089896080e+00 9.601975804601973863e+00 -4.103088608030074358e-01 -1.972086370259372723e+00 -2.072930516972415482e+00 0.000000000000000000e+00 0.000000000000000000e+00 0.000000000000000000e+00 4.539708780664748024e-16 2.308698981531989188e-15 0.000000000000000000e+00 5.177093894640278803e-16 9.618731844851495426e-16 0.000000000000000000e+00 -1.872496970109320847e-15 2.032615364969905676e-16 8.678014620787229870e-16 0.000000000000000000e+00 0.000000000000000000e+00 0.000000000000000000e+00 0.000000000000000000e+00 3.961843020908236022e-15 -7.091838503506377422e-16 0.000000000000000000e+00 3.113245180253281871e-16 1.680985729891837414e-15 -1.872496970109320847e-15 2.032615364969905676e-16 8.678014620787229870e-16 0.000000000000000000e+00 2.746622483369706522e-15 4.194693516362886279e-15 0.000000000000000000e+00 1.789538861735589142e-15 1.721755900466192878e-15 0.000000000000000000e+00 -4.550703435627726345e-15 5.022453488713036894e-15 -1.872496970109320847e-15 2.032615364969905676e-16 8.678014620787229870e-16 0.000000000000000000e+00 0.000000000000000000e+00 0.000000000000000000e+00 0.000000000000000000e+00 -2.670560138369899133e-15 -5.270860316409292675e-15 0.000000000000000000e+00 1.430108320466513986e-15 4.158328761394923897e-15 -1.872496970109320847e-15 2.032615364969905676e-16 8.678014620787229870e-16 0.000000000000000000e+00 0.000000000000000000e+00 0.000000000000000000e+00 0.000000000000000000e+00 4.696204776150970145e-15 -5.148345659066911775e-16 0.000000000000000000e+00 3.034933238158521365e-15 4.347081959763579243e-15
4.500697290896549703e+02 -1.254258941427606640e-02 6.863906391373282220e-03 1.078977033533340679e-01 1.197436465977584630e-01 2.307821326568845199e-01 -3.839550175398682152e-01 -1.144045702765364020e-01 -3.394143822555603096e-01 2.749452596121090275e-01 1.423062015247380241e-01 -4.689604467431969237e-01 -4.304172405015582736e-02 -8.877873184167521178e-03 2.119665442310990633e-01 3.308212883375567098e-02 -9.066108719768940782e-02 3.593311244968979204e-03 7.422841760811901834e-02 -6.294597796723577776e-02 -1.759999571148525843e-01 4.120618558825615840e-02 1.091446067780223045e-01 -2.057367961284279137e-02 1.143478149065822562e-02 1.136717797876902886e-01 2.929225243504084142e-02 4.220551814818258342e-03 4.197681711633271390e-02 5.350687598402048203e-03 3.886272126878412801e-03 8.089971652891064791e-02 4.708712158325771210e-03 8.863720678920035054e-03 -1.733791334591974417e-02 -1.614067857919417037e-02 2.209784980010075922e-02 -1.360139065759446465e-02 -1.873967015670603697e-01 1.414831592981137809e-01 -3.004472233381778601e-01 -1.285727059350700030e-01 -1.191123480045483546e-01 -4.406163442300876920e-02 4.237494470280106507e-01 -8.107559726931137245e-01 7.402478917652648427e-01 2.036873378184121730e+00 3.973606075237123836e-01 -3.892268306061957839e-02 6.769024074376993383e+00 1.921140609498671603e-01 3.308479297686616749e-01 -1.960518063980734249e+00 0.000000000000000000e+00 0.000000000000000000e+00 0.000000000000000000e+00 5.427547030254918185e-15 5.013124398354514737e-15 0.000000000000000000e+00 -2.697546224701723124e-15 -1.127648304565427721e-16 0.000000000000000000e+00 6.998762528978486159e-17 2.571429453780665741e-15 3.865076756236151227e-15 0.000000000000000000e+00 0.000000000000000000e+00 0.000000000000000000e+00 0.000000000000000000e+00 7.992254125788983277e-16 1.376012517467932163e-14 0.000000000000000000e+00 5.675543498862848410e-15 4.907459227985175503e-15 6.998762528978486159e-17 2.571429453780665741e-15 3.865076756236151227e-15 0.000000000000000000e+00 5.235774349864615182e-15 5.974291922279098775e-15 0.000000000000000000e+00 1.047922062296268684e-14 2.368061685492606795e-14 0.000000000000000000e+00 5.634896231297793734e-15 8.839269494727910683e-15 6.998762528978486159e-17 2.571429453780665741e-15 3.865076756236151227e-15 0.000000000000000000e+00 0.000000000000000000e+00 0.000000000000000000e+00 0.000000000000000000e+00 -9.909716725324021685e-16 1.877750288364847361e-14 0.000000000000000000e+00 -8.145934536625946642e-16 2.626974921818737029e-15 6.998762528978486159e-17 2.571429453780665741e-15 3.865076756236151227e-15 0.000000000000000000e+00 0.000000000000000000e+00 0.000000000000000000e+00 0.000000000000000000e+00 2.841164043983274911e-15 1.904321740691186506e-14 0.000000000000000000e+00 3.609638532168263367e-15 6.160842331409945802e-15 -3.050867657890356591e-02 3.467788338701110473e-01 4.253014978838128290e-01 8.432628722743805705e-01 -8.353181817038696222e-01 -2.052299653671310065e-01 8.075557559446977507e+00 1.885805975883244168e+00 7.947486494217131714e+00 -2.055714607495132684e-01 -1.829753191358491238e+00 -1.968506129881633093e+00 0.000000000000000000e+00 0.000000000000000000e+00 0.000000000000000000e+00 -2.464572530239282486e-16 2.221690419691937136e-15 0.000000000000000000e+00 -3.425364958414943266e-16 7.769272354055027955e-16 0.000000000000000000e+00 -1.288125154011348014e-15 4.061661940446608929e-16 6.996049189080520990e-16 0.000000000000000000e+00 0.000000000000000000e+00 0.000000000000000000e+00 0.000000000000000000e+00 3.008952735693731789e-15 -3.363118703359778756e-16 0.000000000000000000e+00 5.433795189732308276e-16 2.586821524937435261e-15 -1.288125154011348014e-15 4.061661940446608929e-16 6.996049189080520990e-16 0.000000000000000000e+00 2.388179234771606453e-15 3.241305152170068286e-15 0.000000000000000000e+00 1.775882706908450051e-15 1.915000158232287477e-15 0.000000000000000000e+00 -3.656484447180562801e-15 4.704691751239242909e-15 -1.288125154011348014e-15 4.061661940446608929e-16 6.996049189080520990e-16 0.000000000000000000e+00 0.000000000000000000e+00 0.000000000000000000e+00 0.000000000000000000e+00 -2.083723538779311132e-15 -4.401537462781448405e-15 0.000000000000000000e+00 9.846517050811718392e-16 3.074030415365364776e-15 -1.288125154011348014e-15 4.061661940446608929e-16 6.996049189080520990e-16 0.000000000000000000e+00 0.000000000000000000e+00 0.000000000000000000e+00 0.000000000000000000e+00 4.233505524024487164e-15 -8.231955317757725011e-16 0.000000000000000000e+00 2.155616641876921688e-15 3.736270938574449552e-15
4.500595354658411225e+02 -1.231650987407218421e-02 -3.327874831592169021e-03 1.000823754929065362e-01 1.008614846471164173e-01 1.997129312475949270e-01 -2.858447158131748878e-01 -1.006804056509359863e-01 -2.585463421918857141e-01 2.194973218027560513e-01 1.223946822831139675e-01 -3.935406458557859644e-01 -3.293198511404982209e-02 -5.363438131186674257e-03 1.791995200867010640e-01 3.938665260182325906e-02 -8.396061770038297511e-02 1.455612950989892615e-02 8.070007255821026737e-02 -4.715338948007954945e-02 -1.606139008078164565e-01 2.796352825088249325e-02 8.976936757255200849e-02 -1.972576311028454918e-02 7.423802997134913012e-03 8.967042484150727910e-02 5.925567793091238156e-02 3.264869680135141020e-03 3.713860377214653341e-02 1.378115088877094642e-02 2.426737264743487540e-03 7.030347612742190999e-02 1.908920376252776913e-02 7.852314563305935746e-03 -1.548955878190748196e-02 -1.591359106136889731e-02 1.726730803322708979e-02 -1.272280940571508465e-02 -1.538374976137808492e-01 1.331367695378813387e-01 -2.738517121150303435e-01 -1.616123762825680821e-01 -9.523086696235807946e-02 -5.288541213007895425e-02 3.011845003953360633e-01 -6.601916703894606941e-01 5.091343572944106999e-01 1.596537205169378915e+00 9.706751584310488457e-02 2.786333106676566196e-01 5.618828150692620760e+00 1.912086392518277944e-01 4.891039767391007209e-01 -1.589671616710327084e+00 0.000000000000000000e+00 0.000000000000000000e+00 0.000000000000000000e+00 5.445225062958471004e-15 4.718854875038399837e-15 0.000000000000000000e+00 -4.724794495847522953e-15 5.686447050900746501e-16 0.000000000000000000e+00 -5.554553069653183754e-17 1.785591536122253650e-15 2.741499570900547196e-15 0.000000000000000000e+00 0.000000000000000000e+00 0.000000000000000000e+00 0.000000000000000000e+00 3.448960720660932819e-16 1.185825552372140355e-14 0.000000000000000000e+00 4.774356866188217313e-15 3.965859643812970409e-15 -5.554553069653183754e-17 1.785591536122253650e-15 2.741499570900547196e-15 0.000000000000000000e+00 3.669018114406957400e-15 3.884880988306005564e-15 0.000000000000000000e+00 9.482632182150471536e-15 1.893943713336860457e-14 0.000000000000000000e+00 3.923067085226843854e-15 6.279133966804970560e-15 -5.554553069653183754e-17 1.785591536122253650e-15 2.741499570900547196e-15 0.000000000000000000e+00 0.000000000000000000e+00 0.000000000000000000e+00 0.000000000000000000e+00 -1.731826556018635487e-16 1.504875067169904439e-14 0.000000000000000000e+00 -8.326655969075265922e-16 2.986070042248839721e-15 -5.554553069653183754e-17 1.785591536122253650e-15 2.741499570900547196e-15 0.000000000000000000e+00 0.000000000000000000e+00 0.000000000000000000e+00 0.000000000000000000e+00 1.816509469850308224e-15 1.512434232654551057e-14 0.000000000000000000e+00 3.202813519320112172e-15 5.216447477152761427e-15 -2.892761922291540652e-02 2.838413111485270646e-01 3.705734342540832893e-01 5.898014762683684298e-01 -7.742237613532499951e-01 -1.155387898154520976e-01 6.536530347604154301e+00 1.578108175672259694e+00 6.217153632559043075e+00 -2.883521346956079145e-02 -1.679532389618730193e+00 -1.827063515999762133e+00 0.000000000000000000e+00 0.000000000000000000e+00 0.000000000000000000e+00 -9.128827367150047650e-16 2.125752289454814148e-15 0.000000000000000000e+00 -1.160834743923245200e-15 5.999438391803248479e-16 0.000000000000000000e+00 -7.176610413169577446e-16 6.130305407148173610e-16 5.350453982411691628e-16 0.000000000000000000e+00 0.000000000000000000e+00 0.000000000000000000e+00 0.000000000000000000e+00 2.070230685754070554e-15 1.185459290856816804e-17 0.000000000000000000e+00 7.462924322548934224e-16 3.412669026269410191e-15 -7.176610413169577446e-16 6.130305407148173610e-16 5.350453982411691628e-16 0.000000000000000000e+00 2.013198092302828559e-15 2.289783087252464659e-15 0.000000000000000000e+00 1.752889179105394579e-15 2.068370280834912308e-15 0.000000000000000000e+00 -2.750831716103383159e-15 4.333756847390285832e-15 -7.176610413169577446e-16 6.130305407148173610e-16 5.350453982411691628e-16 0.000000000000000000e+00 0.000000000000000000e+00 0.000000000000000000e+00 0.000000000000000000e+00 -1.498047274824396065e-15 -3.525253188231721797e-15 0.000000000000000000e+00 5.488299939814916144e-16 1.988854029339257233e-15 -7.176610413169577446e-16 6.130305407148173610e-16 5.350453982411691628e-16 0.000000000000000000e+00 0.000000000000000000e+00 0.000000000000000000e+00 0.000000000000000000e+00 3.744255942845574882e-15 -1.105757639570448352e-15 0.000000000000000000e+00 1.286981415391504372e-15 3.117432150611856553e-15
